<?xml version="1.0" standalone="no"?>
<!DOCTYPE svg PUBLIC "-//W3C//DTD SVG 1.1//EN" "http://www.w3.org/Graphics/SVG/1.1/DTD/svg11.dtd" >
<svg xmlns="http://www.w3.org/2000/svg">
<metadata></metadata>
<defs>
<font id="mbalbold" horiz-adv-x="1269" >
<font-face units-per-em="2048" ascent="1536" descent="-512" />
<missing-glyph horiz-adv-x="512" />
<glyph horiz-adv-x="2048" />
<glyph horiz-adv-x="2048" />
<glyph unicode="&#xd;" horiz-adv-x="2048" />
<glyph unicode=" "  horiz-adv-x="512" />
<glyph unicode="&#x09;" horiz-adv-x="512" />
<glyph unicode="&#xa0;" horiz-adv-x="512" />
<glyph unicode="!" horiz-adv-x="634" d="M123 976v519h389v-519l-102 -461h-185zM143 0v352h349v-352h-349z" />
<glyph unicode="(" horiz-adv-x="708" d="M125 496v39v40v345q0 74 1 100.5t9.5 62.5t28.5 68l248 405h266v-61l-229 -408q-37 -65 -37 -200v-279q0 -135 37 -200l229 -408v-61h-266l-248 405q-9 16 -16 30t-11.5 31.5t-7 27t-3.5 33t-1 30.5z" />
<glyph unicode=")" horiz-adv-x="708" d="M31 0l229 408q37 65 37 200v279q0 135 -37 200l-229 408v61h266l248 -405q9 -16 16 -30t11.5 -31.5t7 -27t3.5 -33t1 -30.5v-39v-40v-345q0 -74 -1 -100.5t-9.5 -62.5t-28.5 -68l-248 -405h-266v61z" />
<glyph unicode="+" horiz-adv-x="1277" d="M82 618v216h444v456h224v-456h446v-216h-446v-452h-224v452h-444z" />
<glyph unicode="," horiz-adv-x="593" d="M123 0v352h348v-352l-136 -321h-178v62l81 198v61h-115z" />
<glyph unicode="-" horiz-adv-x="819" d="M82 618v236h655v-236h-655z" />
<glyph unicode="." horiz-adv-x="593" d="M123 0v352h348v-352h-348z" />
<glyph unicode="/" horiz-adv-x="929" d="M41 0v63l592 1432h256v-61l-592 -1434h-256z" />
<glyph unicode="0" d="M80 756q0 278 15 372t76 170q22 28 63 69q45 45 73 67q69 58 126 72t202 14q144 0 201.5 -14t125.5 -71q28 -22 74 -68q37 -37 62 -69q62 -76 77 -170t15 -372q0 -292 -15 -388t-76 -171q-25 -32 -59 -65q-37 -37 -79 -72q-67 -57 -124 -71t-202 -14q-144 0 -201.5 14 t-124.5 71q-42 35 -79 72q-34 33 -59 65q-61 73 -76 170t-15 389zM432 756q0 -203 6.5 -267t35.5 -102q10 -14 28 -32q22 -22 28 -27q22 -18 43 -23.5t62 -5.5t61 5.5t43 23.5q8 6 28 26q16 15 28 33q29 38 36 103t7 266q0 192 -7 254t-35 99q-8 11 -29 32q-13 13 -27 24 q-25 20 -45 25.5t-60 5.5q-39 0 -59.5 -5.5t-45.5 -25.5q-18 -14 -28 -24q-17 -17 -28 -32q-28 -37 -35 -99t-7 -254z" />
<glyph unicode="1" d="M102 0v328h418v640h-356v294q108 0 154.5 6.5t82.5 27.5t91 76l122 123h254v-1167h320v-328h-1086z" />
<glyph unicode="2" d="M102 0v295l507 459q87 79 120.5 118t44 69.5t10.5 88.5q0 36 -4 51t-17 32q-5 8 -19 22q-18 18 -23 21q-19 15 -39.5 19.5t-65.5 4.5q-42 0 -62 -5.5t-39 -20.5q-12 -9 -24 -21q-14 -15 -25 -28q-15 -20 -19.5 -43.5t-4.5 -78.5h-340q0 143 14.5 202.5t68.5 123.5 q24 30 59 65q36 36 73 65q55 44 113.5 58t185.5 14q132 0 195 -15t117 -58q35 -28 63 -56q15 -15 55 -60q61 -70 75 -116t14 -176q0 -64 -1 -95t-8 -70.5t-17 -59t-35.5 -52t-55 -59t-82.5 -71.5l-291 -248v-47h481v-328h-1024z" />
<glyph unicode="3" d="M76 485h355q0 -46 4 -67t18 -41q5 -8 21 -24q20 -20 30 -28q22 -19 43 -24.5t71 -5.5q51 0 71.5 5.5t43.5 24.5q15 12 31 28t22 24q15 18 20 36.5t5 59.5q0 39 -4.5 56t-19.5 36q-14 18 -24 28q-14 14 -34 30q-31 25 -61 32t-105 7h-155v188l288 266v62h-572v317h1016 v-317l-244 -256l176 -172q65 -64 80 -112t15 -181q0 -110 -9.5 -155t-50.5 -94q-30 -36 -80 -86q-51 -51 -84 -76q-53 -41 -114 -51.5t-211 -10.5t-206 10t-109 52q-25 19 -82 76q-56 56 -80 86q-45 55 -55 104t-10 173z" />
<glyph unicode="4" d="M61 313v330l615 852h368v-874h185v-308h-185v-313h-327v313h-656zM434 621h283v372h-62l-221 -311v-61z" />
<glyph unicode="5" d="M90 442h334q0 -27 4 -41t17 -30q6 -8 23 -25q12 -12 27 -24q25 -21 48 -27t75 -6q55 0 79 5.5t48 25.5q15 12 30 27q16 16 22 24q21 24 25.5 43.5t4.5 77.5q0 45 -5.5 64.5t-25.5 43.5q-6 8 -21 23q-12 12 -32 28q-25 20 -48.5 25.5t-76.5 5.5q-94 0 -124 -11.5 t-86 -68.5h-273l121 893h854v-317h-604l-31 -203h199q126 0 178 -10t98 -47q35 -28 66 -59q50 -50 68 -73q55 -66 69 -116.5t14 -177.5q0 -128 -12 -181.5t-59 -111.5q-28 -35 -81 -88q-23 -23 -61 -55q-55 -46 -116 -59t-220 -13q-141 0 -198 12t-112 58q-37 30 -70 63 q-40 40 -75 82q-49 59 -61 104t-12 139z" />
<glyph unicode="6" d="M109 498q0 184 12.5 249t62.5 133l454 615h374v-61l-368 -464v-61q31 29 89 29q92 0 137.5 -13t98.5 -53q36 -27 62 -53q41 -41 70 -78q38 -49 49 -95.5t11 -147.5q0 -131 -10.5 -187t-48.5 -107q-30 -40 -70 -80q-37 -37 -78 -69q-56 -45 -115.5 -58t-201.5 -13 q-145 0 -205.5 13t-116.5 58q-37 29 -77 69q-39 39 -71 80q-38 49 -48 105t-10 189zM446 467q0 -33 4 -49t18 -34q12 -16 39 -43q13 -13 25 -22q20 -15 39.5 -19.5t65.5 -4.5q47 0 66.5 4.5t38.5 21.5q12 9 23 20q12 12 36 44q22 32 22 82q0 41 -4 56.5t-22 36.5 q-24 27 -28 31q-13 13 -33 29q-17 14 -36 17.5t-63 3.5t-63 -3.5t-37 -17.5t-33 -29q-21 -21 -29 -31q-19 -24 -24 -39.5t-5 -53.5z" />
<glyph unicode="7" d="M104 1178v317h1072v-317l-593 -1178h-358v61l540 1055v62h-661z" />
<glyph unicode="8" d="M113 451q0 84 8.5 121t34 72t100.5 110l16 16q-69 70 -97 113t-35 80t-7 116q0 120 21 167.5t120 146.5q56 56 96 79t95 31t170 8q126 0 177.5 -6.5t90 -28t96.5 -79.5q95 -95 116.5 -146t21.5 -172q0 -79 -8.5 -117.5t-34.5 -76t-94 -106.5q50 -50 74.5 -78.5t44.5 -55 t26.5 -55.5t9 -57t2.5 -82q0 -101 -11.5 -145.5t-55.5 -96.5q-33 -39 -88 -94q-38 -38 -69 -62q-55 -44 -112 -56.5t-186 -12.5q-132 0 -190.5 12.5t-116.5 57.5q-34 26 -69 61q-51 51 -85 93q-41 50 -51 94t-10 149zM447 455q0 -64 21 -93q9 -13 28 -32q14 -14 26 -23 q21 -17 43 -21.5t70 -4.5q49 0 70 4.5t42 20.5q12 9 27 24q18 18 27 31q22 30 22 96q0 40 -4.5 59t-17.5 38q-12 17 -27 32q-14 14 -26 23q-21 16 -43.5 21t-69.5 5q-48 0 -69.5 -4.5t-43.5 -21.5q-12 -9 -26 -23q-18 -18 -27 -31q-13 -19 -17.5 -39t-4.5 -61zM459 1071 q0 -39 4 -54.5t19 -35.5q8 -10 15 -17q19 -19 32 -28q19 -14 40.5 -18.5t65.5 -4.5q71 0 105 23q17 12 33 28q7 7 15 17q15 20 19 35.5t4 54.5q0 35 -4 49.5t-19 33.5q-9 12 -25 28q-12 12 -22 19q-19 13 -40 17.5t-66 4.5t-66 -4.5t-40 -17.5q-8 -5 -22 -19 q-16 -16 -25 -28q-15 -19 -19 -33.5t-4 -49.5z" />
<glyph unicode="9" d="M100 997q0 130 11 186.5t49 107.5q30 40 70 80t77 69q56 45 116 58t202 13q145 0 205 -13t116 -58q37 -29 77 -69q39 -39 71 -80q38 -49 48.5 -105.5t10.5 -188.5q0 -183 -12.5 -248.5t-63.5 -133.5l-453 -615h-375v61l369 464v61q-31 -29 -89 -29q-92 0 -138 13t-99 53 q-28 21 -61 54q-49 49 -71 77q-38 49 -49 95.5t-11 147.5zM438 1028q0 -41 4 -56.5t22 -36.5q8 -9 29 -30q18 -18 33 -30q17 -14 36 -17.5t63 -3.5t63 3.5t37 17.5t33 29q16 16 28 31q19 24 24 39.5t5 53.5q0 33 -4 49t-18 34q-12 16 -39 43q-13 13 -25 22q-20 15 -39 19.5 t-65 4.5q-47 0 -66.5 -4.5t-38.5 -21.5q-12 -9 -23 -20q-16 -16 -37 -44q-22 -32 -22 -82z" />
<glyph unicode=":" horiz-adv-x="593" d="M123 0v352h348v-352h-348zM123 713v352h348v-352h-348z" />
<glyph unicode=";" horiz-adv-x="593" d="M123 0v352h348v-352l-136 -321h-178v62l81 198v61h-115zM123 713v352h348v-352h-348z" />
<glyph unicode="?" horiz-adv-x="1200" d="M61 1031q0 102 8 146t37 87.5t105 119.5q89 89 149 110.5t213 21.5q172 0 239.5 -22t155.5 -110q45 -45 70.5 -76t43.5 -58.5t24.5 -62.5t9 -69t2.5 -96q0 -54 -2.5 -82t-16 -56t-28.5 -45t-55 -57q-38 -38 -52.5 -48.5t-37.5 -20.5l-157 -63q-45 -18 -64 -37 t-24.5 -36.5t-5.5 -61.5h-292q0 80 1 114t3 68.5t11.5 51t19.5 30.5t33 37t36 32t41 20l145 58q15 6 23 10.5t23 16.5t37 34q17 17 21.5 29.5t4.5 44.5q0 24 -10.5 43t-44.5 53q-31 31 -59.5 40t-94.5 9q-44 0 -70 -10t-59 -43q-35 -35 -43 -54.5t-8 -67.5h-332zM352 0v352 h348v-352h-348z" />
<glyph unicode="A" horiz-adv-x="1378" d="M10 0v61l453 1434h452l453 -1434v-61h-334l-99 334h-497l-100 -334h-328zM532 651h308l-123 412h-62z" />
<glyph unicode="B" horiz-adv-x="1333" d="M143 0v1495h572q160 0 214.5 -10t110.5 -51q26 -18 68 -60q33 -33 57 -63q42 -51 54 -95t12 -149q0 -65 -7 -96.5t-37 -75t-102 -115.5q86 -87 121.5 -134.5t45.5 -85.5t10 -109q0 -115 -10 -161t-48 -95q-26 -35 -65 -74q-41 -41 -78 -66q-52 -37 -108.5 -46t-207.5 -9 h-602zM483 315h240q64 0 85.5 3.5t40.5 16.5q7 5 24 21q17 17 21 24q12 18 15.5 33.5t3.5 49.5q0 32 -4 46.5t-18 33.5q-5 8 -18 21q-10 10 -22 19q-19 14 -40 17.5t-88 3.5h-240v-289zM483 901h224q57 0 79.5 4.5t38.5 16.5q12 9 21 18q13 13 18 20q15 19 19 33.5t4 50.5 q0 30 -4.5 45.5t-17.5 32.5q-5 8 -19 22q-9 9 -21 18q-18 14 -40.5 18t-77.5 4h-224v-283z" />
<glyph unicode="C" horiz-adv-x="1305" d="M68 756q0 178 10 265.5t34 140t83 124.5q22 28 66 72q47 47 80 69q69 48 137.5 66t191.5 18q118 0 186 -15.5t141 -68.5q42 -29 90 -77q17 -17 62 -67q76 -86 95.5 -148.5t19.5 -184.5h-350q0 49 -6.5 72t-32.5 53q-22 26 -41 45q-11 11 -28 23q-49 37 -136 37 q-84 0 -131 -35q-18 -13 -31 -26q-24 -24 -38 -43q-29 -40 -39 -100t-10 -220q0 -174 8.5 -232t40.5 -100q15 -21 36 -42q6 -6 31 -26q55 -41 133 -41q77 0 129 40q25 20 32 27q17 17 37 41q30 33 38 58.5t8 77.5h350q0 -129 -15.5 -184t-84.5 -135q-30 -36 -73 -79 q-32 -32 -72 -65q-81 -68 -155 -90t-194 -22q-134 0 -203.5 21t-146.5 81q-34 26 -59 51q-44 44 -86 96q-50 63 -70 111t-28.5 136.5t-8.5 275.5z" />
<glyph unicode="D" horiz-adv-x="1338" d="M143 0v1495h514q148 0 211.5 -15t132.5 -72q56 -47 110 -101q42 -42 74 -82q56 -72 70.5 -156.5t14.5 -312.5q0 -221 -14.5 -310.5t-70.5 -163.5q-37 -49 -94 -106q-43 -43 -85 -80q-75 -64 -135 -80t-214 -16h-514zM492 324h145q59 0 90 8t67 37q30 25 38 33 q18 18 30 34q37 47 47.5 105t10.5 215q0 148 -12 204.5t-48 99.5q-13 16 -30 33q-9 9 -39 34q-35 28 -65.5 36t-88.5 8h-145v-847z" />
<glyph unicode="E" horiz-adv-x="1239" d="M143 0v1495h1014v-328h-670v-231h557v-320h-557v-288h680v-328h-1024z" />
<glyph unicode="F" horiz-adv-x="1146" d="M143 0v1495h942v-328h-593v-295h542v-327h-542v-545h-349z" />
<glyph unicode="G" horiz-adv-x="1371" d="M68 756q0 178 10 265.5t34 140t83 124.5q22 28 66 72q47 47 80 69q71 49 138.5 66.5t203.5 17.5q152 0 222.5 -17t143.5 -67q30 -20 79 -69q42 -42 58 -62q75 -93 94 -145.5t19 -170.5h-350q0 33 -7.5 53.5t-32.5 52.5q-14 17 -31 34q-19 19 -29 27q-33 26 -64 34t-102 8 q-54 0 -83.5 -8t-62.5 -33q-12 -9 -35 -32q-19 -19 -27 -29q-33 -41 -43.5 -102t-10.5 -229q0 -165 11.5 -230.5t42.5 -108.5q17 -22 32 -37q18 -18 35 -32q32 -26 61.5 -34t92.5 -8q74 0 107.5 7.5t64.5 32.5q9 7 24 22q24 24 42 49q21 31 21 72v31h-242v297h586v-330 q0 -89 -15 -137.5t-70 -116.5q-42 -52 -86 -96q-36 -36 -67 -59q-75 -57 -147.5 -75.5t-230.5 -18.5q-144 0 -215 21t-148 81q-34 26 -61 53q-42 42 -84 94q-50 63 -70 111t-28.5 136.5t-8.5 275.5z" />
<glyph unicode="H" horiz-adv-x="1478" d="M143 0v1495h349v-559h495v559h348v-1495h-348v608h-495v-608h-349z" />
<glyph unicode="I" horiz-adv-x="634" d="M143 0v1495h349v-1495h-349z" />
<glyph unicode="J" horiz-adv-x="1131" d="M20 519h332q0 -61 4.5 -86t20.5 -46q7 -11 18 -21q15 -15 28 -25q33 -26 85 -26t85 26q13 10 28 25q12 12 17 19q17 22 21.5 45.5t4.5 88.5v976h348v-922q0 -173 -13 -246t-55 -128q-29 -38 -60 -69q-56 -56 -96 -86q-47 -36 -104 -48t-176 -12q-102 0 -156.5 12 t-103.5 48q-43 32 -98 86q-31 31 -59 66q-48 59 -59.5 118.5t-11.5 204.5z" />
<glyph unicode="K" horiz-adv-x="1377" d="M143 0v1495h349v-559h61l416 559h355v-61l-485 -635l511 -738v-61h-379l-418 608h-61v-608h-349z" />
<glyph unicode="L" horiz-adv-x="1185" d="M143 0v1495h349v-1167h673v-328h-1022z" />
<glyph unicode="M" horiz-adv-x="1716" d="M143 0v1495h443l250 -496h61l233 496h443v-1495h-344v946h-62l-219 -432h-184l-215 432h-62v-946h-344z" />
<glyph unicode="N" horiz-adv-x="1474" d="M143 0v1495h359l424 -797h61v797h344v-1495h-358l-424 797h-62v-797h-344z" />
<glyph unicode="O" horiz-adv-x="1344" d="M68 756q0 178 10 265.5t34 140t83 124.5q22 28 66 72q47 47 80 69q72 49 138.5 66.5t192.5 17.5q127 0 195.5 -17.5t136.5 -66.5q37 -26 80 -69q37 -37 57 -62q64 -78 89 -130t36 -140t11 -270q0 -186 -8.5 -274.5t-28.5 -137.5t-70 -111q-42 -52 -86 -96 q-34 -34 -68 -59q-73 -55 -143 -74.5t-201 -19.5q-135 0 -205.5 21.5t-146.5 80.5q-34 26 -59 51q-44 44 -86 96q-50 63 -70 111t-28.5 136.5t-8.5 275.5zM421 756q0 -166 8.5 -228t38.5 -102q16 -22 38 -44q12 -12 38 -32q29 -21 56 -28t72 -7t72 7t57 28q21 15 38 32 q23 22 39 45q29 40 37.5 102t8.5 227q0 156 -8.5 215t-37.5 98q-14 19 -39 44q-22 22 -38 33q-30 20 -56.5 27t-72.5 7q-45 0 -71.5 -7t-56.5 -27q-16 -11 -38 -33q-22 -21 -38 -44q-30 -39 -38.5 -98t-8.5 -215z" />
<glyph unicode="P" horiz-adv-x="1249" d="M143 0v1495h475q180 0 249 -11t126 -54q29 -22 83 -76q40 -40 63 -67q46 -53 57.5 -104.5t11.5 -176.5q0 -128 -11.5 -179t-57.5 -108q-30 -37 -62 -69q-49 -49 -84 -77q-70 -57 -132 -70.5t-222 -13.5h-147v-489h-349zM492 817h147q62 0 92 8t56 29q12 9 23 20 q14 14 23 26q16 19 20.5 37t4.5 56q0 37 -4.5 55t-19.5 36t-16 19q-7 7 -32 27q-29 23 -57 30t-92 7h-145v-350z" />
<glyph unicode="Q" horiz-adv-x="1365" d="M68 756q0 178 10 265.5t34 140t83 124.5q22 28 66 72q47 47 80 69q72 49 138.5 66.5t192.5 17.5q127 0 195.5 -17.5t136.5 -66.5q37 -26 80 -69q37 -37 57 -62q64 -78 89 -130t36 -140t11 -270q0 -221 -12 -311t-51 -151l122 -83v-211h-205l-114 79l-1 -1 q-73 -55 -143 -74.5t-201 -19.5q-135 0 -205.5 21.5t-146.5 80.5q-34 26 -59 51q-44 44 -86 96q-50 63 -70 111t-28.5 136.5t-8.5 275.5zM421 756q0 -166 8.5 -228t38.5 -102q16 -22 38 -44q12 -12 38 -32q29 -21 56 -28t72 -7q20 0 48 2v179h190q14 58 14 260 q0 156 -8.5 215t-37.5 98q-14 19 -39 44q-22 22 -38 33q-30 20 -56.5 27t-72.5 7q-45 0 -71.5 -7t-56.5 -27q-16 -11 -38 -33q-22 -21 -38 -44q-30 -39 -38.5 -98t-8.5 -215z" />
<glyph unicode="R" horiz-adv-x="1310" d="M143 0v1495h510q156 0 218 -12.5t126 -63.5q30 -21 70 -61q31 -31 59 -66q56 -66 70 -109.5t14 -138.5q0 -108 -11.5 -156.5t-55.5 -101.5q-25 -32 -68 -75q-60 -60 -114 -107l-37 -31l346 -512v-61h-379l-338 518h-61v-518h-349zM492 840h184q45 0 66 5t40 21 q24 19 34 30q9 9 17 20q18 23 23.5 42.5t5.5 53.5q0 31 -5 48.5t-22 37.5q-10 12 -17 19q-18 18 -36 31q-18 14 -40 18.5t-66 4.5h-184v-331z" />
<glyph unicode="S" horiz-adv-x="1230" d="M66 471h335q0 -52 22 -82q8 -12 33 -37q17 -17 29 -25q29 -20 59 -27t83 -7q40 0 63.5 7.5t54.5 31.5q12 9 23 20q21 21 29 31q17 21 22.5 35t5.5 37q0 26 -5 39t-20 28q-37 37 -73 51.5t-152 36.5l-153 29q-73 14 -108.5 28.5t-73.5 47.5q-23 19 -56 52q-25 25 -43 46 q-37 43 -48 83t-11 126q0 109 17.5 164t81.5 130q27 33 63 69q33 33 58 53q61 51 120 64.5t205 13.5q130 0 188 -14t118 -65q30 -25 57 -52t63 -67q59 -67 72.5 -114.5t13.5 -159.5h-332q0 28 -4 43t-19 35q-9 13 -26 30q-16 16 -24 21q-26 20 -48 26.5t-59 6.5 q-55 0 -81 -5t-48 -22q-15 -10 -26 -21q-16 -15 -26 -29q-28 -34 -28 -68q0 -32 4.5 -44.5t21.5 -29.5q20 -20 50.5 -29t140.5 -30l149 -27q88 -15 128 -32t91 -61q16 -14 50 -48q31 -31 52 -55q40 -46 50 -85.5t10 -130.5q0 -107 -17 -160.5t-84 -131.5q-27 -32 -58 -63 q-23 -23 -59 -55q-72 -63 -130 -79t-190 -16q-153 0 -218 13.5t-129 62.5q-30 23 -61 54q-41 41 -74 79q-54 62 -66.5 109.5t-12.5 168.5z" />
<glyph unicode="T" horiz-adv-x="1159" d="M20 1167v328h1119v-328h-385v-1167h-348v1167h-386z" />
<glyph unicode="U" horiz-adv-x="1376" d="M113 516v979h348v-903q0 -76 7.5 -110t35.5 -69q16 -20 26 -30q15 -15 39 -33q30 -21 55 -28t64 -7t64 7t55 28q24 18 39 33q10 10 26 30q28 35 35.5 69t7.5 110v903h349v-979q0 -109 -19 -169t-80 -137q-27 -35 -74 -82q-38 -38 -75 -67q-59 -46 -127.5 -61.5 t-200.5 -15.5t-200 15.5t-128 61.5q-32 24 -75 67q-47 47 -74 82q-60 77 -79 137t-19 169z" />
<glyph unicode="V" horiz-adv-x="1349" d="M20 1434v61h342l287 -1044h62l286 1044h332v-61l-428 -1434h-452z" />
<glyph unicode="W" horiz-adv-x="1816" d="M31 1434v61h329l195 -850h61l205 502h185l206 -502h62l188 850h324v-61l-348 -1434h-316l-182 537h-61l-185 -537h-315z" />
<glyph unicode="X" horiz-adv-x="1376" d="M41 0v61l426 701l-418 672v61h361l256 -436h61l256 436h344v-61l-416 -672l424 -701v-61h-348l-274 469h-62l-274 -469h-336z" />
<glyph unicode="Y" d="M10 1434v61h355l245 -557h62l246 557h342v-61l-451 -918v-516h-348v516z" />
<glyph unicode="Z" horiz-adv-x="1204" d="M55 0v307l604 799v61h-561v328h1036v-307l-605 -799v-61h611v-328h-1085z" />
<glyph unicode="`" horiz-adv-x="822" d="M109 1391h584l82 -195h-584z" />
<glyph unicode="a" horiz-adv-x="1378" d="M10 0v61l453 1434h452l453 -1434v-61h-334l-99 334h-497l-100 -334h-328zM532 651h308l-123 412h-62z" />
<glyph unicode="b" horiz-adv-x="1333" d="M143 0v1495h572q160 0 214.5 -10t110.5 -51q26 -18 68 -60q33 -33 57 -63q42 -51 54 -95t12 -149q0 -65 -7 -96.5t-37 -75t-102 -115.5q86 -87 121.5 -134.5t45.5 -85.5t10 -109q0 -115 -10 -161t-48 -95q-26 -35 -65 -74q-41 -41 -78 -66q-52 -37 -108.5 -46t-207.5 -9 h-602zM483 315h240q64 0 85.5 3.5t40.5 16.5q7 5 24 21q17 17 21 24q12 18 15.5 33.5t3.5 49.5q0 32 -4 46.5t-18 33.5q-5 8 -18 21q-10 10 -22 19q-19 14 -40 17.5t-88 3.5h-240v-289zM483 901h224q57 0 79.5 4.5t38.5 16.5q12 9 21 18q13 13 18 20q15 19 19 33.5t4 50.5 q0 30 -4.5 45.5t-17.5 32.5q-5 8 -19 22q-9 9 -21 18q-18 14 -40.5 18t-77.5 4h-224v-283z" />
<glyph unicode="c" horiz-adv-x="1305" d="M68 756q0 178 10 265.5t34 140t83 124.5q22 28 66 72q47 47 80 69q69 48 137.5 66t191.5 18q118 0 186 -15.5t141 -68.5q42 -29 90 -77q17 -17 62 -67q76 -86 95.5 -148.5t19.5 -184.5h-350q0 49 -6.5 72t-32.5 53q-22 26 -41 45q-11 11 -28 23q-49 37 -136 37 q-84 0 -131 -35q-18 -13 -31 -26q-24 -24 -38 -43q-29 -40 -39 -100t-10 -220q0 -174 8.5 -232t40.5 -100q15 -21 36 -42q6 -6 31 -26q55 -41 133 -41q77 0 129 40q25 20 32 27q17 17 37 41q30 33 38 58.5t8 77.5h350q0 -129 -15.5 -184t-84.5 -135q-30 -36 -73 -79 q-32 -32 -72 -65q-81 -68 -155 -90t-194 -22q-134 0 -203.5 21t-146.5 81q-34 26 -59 51q-44 44 -86 96q-50 63 -70 111t-28.5 136.5t-8.5 275.5z" />
<glyph unicode="d" horiz-adv-x="1338" d="M143 0v1495h514q148 0 211.5 -15t132.5 -72q56 -47 110 -101q42 -42 74 -82q56 -72 70.5 -156.5t14.5 -312.5q0 -221 -14.5 -310.5t-70.5 -163.5q-37 -49 -94 -106q-43 -43 -85 -80q-75 -64 -135 -80t-214 -16h-514zM492 324h145q59 0 90 8t67 37q30 25 38 33 q18 18 30 34q37 47 47.5 105t10.5 215q0 148 -12 204.5t-48 99.5q-13 16 -30 33q-9 9 -39 34q-35 28 -65.5 36t-88.5 8h-145v-847z" />
<glyph unicode="e" horiz-adv-x="1239" d="M143 0v1495h1014v-328h-670v-231h557v-320h-557v-288h680v-328h-1024z" />
<glyph unicode="f" horiz-adv-x="1146" d="M143 0v1495h942v-328h-593v-295h542v-327h-542v-545h-349z" />
<glyph unicode="g" horiz-adv-x="1371" d="M68 756q0 178 10 265.5t34 140t83 124.5q22 28 66 72q47 47 80 69q71 49 138.5 66.5t203.5 17.5q152 0 222.5 -17t143.5 -67q30 -20 79 -69q42 -42 58 -62q75 -93 94 -145.5t19 -170.5h-350q0 33 -7.5 53.5t-32.5 52.5q-14 17 -31 34q-19 19 -29 27q-33 26 -64 34t-102 8 q-54 0 -83.5 -8t-62.5 -33q-12 -9 -35 -32q-19 -19 -27 -29q-33 -41 -43.5 -102t-10.5 -229q0 -165 11.5 -230.5t42.5 -108.5q17 -22 32 -37q18 -18 35 -32q32 -26 61.5 -34t92.5 -8q74 0 107.5 7.5t64.5 32.5q9 7 24 22q24 24 42 49q21 31 21 72v31h-242v297h586v-330 q0 -89 -15 -137.5t-70 -116.5q-42 -52 -86 -96q-36 -36 -67 -59q-75 -57 -147.5 -75.5t-230.5 -18.5q-144 0 -215 21t-148 81q-34 26 -61 53q-42 42 -84 94q-50 63 -70 111t-28.5 136.5t-8.5 275.5z" />
<glyph unicode="h" horiz-adv-x="1478" d="M143 0v1495h349v-559h495v559h348v-1495h-348v608h-495v-608h-349z" />
<glyph unicode="i" horiz-adv-x="634" d="M143 0v1495h349v-1495h-349z" />
<glyph unicode="j" horiz-adv-x="1131" d="M20 519h332q0 -61 4.5 -86t20.5 -46q7 -11 18 -21q15 -15 28 -25q33 -26 85 -26t85 26q13 10 28 25q12 12 17 19q17 22 21.5 45.5t4.5 88.5v976h348v-922q0 -173 -13 -246t-55 -128q-29 -38 -60 -69q-56 -56 -96 -86q-47 -36 -104 -48t-176 -12q-102 0 -156.5 12 t-103.5 48q-43 32 -98 86q-31 31 -59 66q-48 59 -59.5 118.5t-11.5 204.5z" />
<glyph unicode="k" horiz-adv-x="1377" d="M143 0v1495h349v-559h61l416 559h355v-61l-485 -635l511 -738v-61h-379l-418 608h-61v-608h-349z" />
<glyph unicode="l" horiz-adv-x="1185" d="M143 0v1495h349v-1167h673v-328h-1022z" />
<glyph unicode="m" horiz-adv-x="1716" d="M143 0v1495h443l250 -496h61l233 496h443v-1495h-344v946h-62l-219 -432h-184l-215 432h-62v-946h-344z" />
<glyph unicode="n" horiz-adv-x="1474" d="M143 0v1495h359l424 -797h61v797h344v-1495h-358l-424 797h-62v-797h-344z" />
<glyph unicode="o" horiz-adv-x="1344" d="M68 756q0 178 10 265.5t34 140t83 124.5q22 28 66 72q47 47 80 69q72 49 138.5 66.5t192.5 17.5q127 0 195.5 -17.5t136.5 -66.5q37 -26 80 -69q37 -37 57 -62q64 -78 89 -130t36 -140t11 -270q0 -186 -8.5 -274.5t-28.5 -137.5t-70 -111q-42 -52 -86 -96 q-34 -34 -68 -59q-73 -55 -143 -74.5t-201 -19.5q-135 0 -205.5 21.5t-146.5 80.5q-34 26 -59 51q-44 44 -86 96q-50 63 -70 111t-28.5 136.5t-8.5 275.5zM421 756q0 -166 8.5 -228t38.5 -102q16 -22 38 -44q12 -12 38 -32q29 -21 56 -28t72 -7t72 7t57 28q21 15 38 32 q23 22 39 45q29 40 37.5 102t8.5 227q0 156 -8.5 215t-37.5 98q-14 19 -39 44q-22 22 -38 33q-30 20 -56.5 27t-72.5 7q-45 0 -71.5 -7t-56.5 -27q-16 -11 -38 -33q-22 -21 -38 -44q-30 -39 -38.5 -98t-8.5 -215z" />
<glyph unicode="p" horiz-adv-x="1249" d="M143 0v1495h475q180 0 249 -11t126 -54q29 -22 83 -76q40 -40 63 -67q46 -53 57.5 -104.5t11.5 -176.5q0 -128 -11.5 -179t-57.5 -108q-30 -37 -62 -69q-49 -49 -84 -77q-70 -57 -132 -70.5t-222 -13.5h-147v-489h-349zM492 817h147q62 0 92 8t56 29q12 9 23 20 q14 14 23 26q16 19 20.5 37t4.5 56q0 37 -4.5 55t-19.5 36t-16 19q-7 7 -32 27q-29 23 -57 30t-92 7h-145v-350z" />
<glyph unicode="q" horiz-adv-x="1365" d="M68 756q0 178 10 265.5t34 140t83 124.5q22 28 66 72q47 47 80 69q72 49 138.5 66.5t192.5 17.5q127 0 195.5 -17.5t136.5 -66.5q37 -26 80 -69q37 -37 57 -62q64 -78 89 -130t36 -140t11 -270q0 -221 -12 -311t-51 -151l122 -83v-211h-205l-114 79l-1 -1 q-73 -55 -143 -74.5t-201 -19.5q-135 0 -205.5 21.5t-146.5 80.5q-34 26 -59 51q-44 44 -86 96q-50 63 -70 111t-28.5 136.5t-8.5 275.5zM421 756q0 -166 8.5 -228t38.5 -102q16 -22 38 -44q12 -12 38 -32q29 -21 56 -28t72 -7q20 0 48 2v179h190q14 58 14 260 q0 156 -8.5 215t-37.5 98q-14 19 -39 44q-22 22 -38 33q-30 20 -56.5 27t-72.5 7q-45 0 -71.5 -7t-56.5 -27q-16 -11 -38 -33q-22 -21 -38 -44q-30 -39 -38.5 -98t-8.5 -215z" />
<glyph unicode="r" horiz-adv-x="1310" d="M143 0v1495h510q156 0 218 -12.5t126 -63.5q30 -21 70 -61q31 -31 59 -66q56 -66 70 -109.5t14 -138.5q0 -108 -11.5 -156.5t-55.5 -101.5q-25 -32 -68 -75q-60 -60 -114 -107l-37 -31l346 -512v-61h-379l-338 518h-61v-518h-349zM492 840h184q45 0 66 5t40 21 q24 19 34 30q9 9 17 20q18 23 23.5 42.5t5.5 53.5q0 31 -5 48.5t-22 37.5q-10 12 -17 19q-18 18 -36 31q-18 14 -40 18.5t-66 4.5h-184v-331z" />
<glyph unicode="s" horiz-adv-x="1230" d="M66 471h335q0 -52 22 -82q8 -12 33 -37q17 -17 29 -25q29 -20 59 -27t83 -7q40 0 63.5 7.5t54.5 31.5q12 9 23 20q21 21 29 31q17 21 22.5 35t5.5 37q0 26 -5 39t-20 28q-37 37 -73 51.5t-152 36.5l-153 29q-73 14 -108.5 28.5t-73.5 47.5q-23 19 -56 52q-25 25 -43 46 q-37 43 -48 83t-11 126q0 109 17.5 164t81.5 130q27 33 63 69q33 33 58 53q61 51 120 64.5t205 13.5q130 0 188 -14t118 -65q30 -25 57 -52t63 -67q59 -67 72.5 -114.5t13.5 -159.5h-332q0 28 -4 43t-19 35q-9 13 -26 30q-16 16 -24 21q-26 20 -48 26.5t-59 6.5 q-55 0 -81 -5t-48 -22q-15 -10 -26 -21q-16 -15 -26 -29q-28 -34 -28 -68q0 -32 4.5 -44.5t21.5 -29.5q20 -20 50.5 -29t140.5 -30l149 -27q88 -15 128 -32t91 -61q16 -14 50 -48q31 -31 52 -55q40 -46 50 -85.5t10 -130.5q0 -107 -17 -160.5t-84 -131.5q-27 -32 -58 -63 q-23 -23 -59 -55q-72 -63 -130 -79t-190 -16q-153 0 -218 13.5t-129 62.5q-30 23 -61 54q-41 41 -74 79q-54 62 -66.5 109.5t-12.5 168.5z" />
<glyph unicode="t" horiz-adv-x="1159" d="M20 1167v328h1119v-328h-385v-1167h-348v1167h-386z" />
<glyph unicode="u" horiz-adv-x="1376" d="M113 516v979h348v-903q0 -76 7.5 -110t35.5 -69q16 -20 26 -30q15 -15 39 -33q30 -21 55 -28t64 -7t64 7t55 28q24 18 39 33q10 10 26 30q28 35 35.5 69t7.5 110v903h349v-979q0 -109 -19 -169t-80 -137q-27 -35 -74 -82q-38 -38 -75 -67q-59 -46 -127.5 -61.5 t-200.5 -15.5t-200 15.5t-128 61.5q-32 24 -75 67q-47 47 -74 82q-60 77 -79 137t-19 169z" />
<glyph unicode="v" horiz-adv-x="1349" d="M20 1434v61h342l287 -1044h62l286 1044h332v-61l-428 -1434h-452z" />
<glyph unicode="w" horiz-adv-x="1816" d="M31 1434v61h329l195 -850h61l205 502h185l206 -502h62l188 850h324v-61l-348 -1434h-316l-182 537h-61l-185 -537h-315z" />
<glyph unicode="x" horiz-adv-x="1376" d="M41 0v61l426 701l-418 672v61h361l256 -436h61l256 436h344v-61l-416 -672l424 -701v-61h-348l-274 469h-62l-274 -469h-336z" />
<glyph unicode="y" d="M10 1434v61h355l245 -557h62l246 557h342v-61l-451 -918v-516h-348v516z" />
<glyph unicode="z" horiz-adv-x="1204" d="M55 0v307l604 799v61h-561v328h1036v-307l-605 -799v-61h611v-328h-1085z" />
<glyph unicode="&#xa8;" horiz-adv-x="651" d="M25 1196v195h225v-195h-225zM401 1196v195h226v-195h-226z" />
<glyph unicode="&#xad;" horiz-adv-x="819" d="M82 618v236h655v-236h-655z" />
<glyph unicode="&#xb4;" horiz-adv-x="822" d="M68 1196l82 195h584l-82 -195h-584z" />
<glyph unicode="&#xb8;" horiz-adv-x="745" d="M102 -274l144 194h254v-194h-398z" />
<glyph unicode="&#xc0;" horiz-adv-x="1456" d="M14 0v61l453 1434h453l452 -1434v-61h-334l-99 334h-497l-100 -334h-328zM342 1769h584l82 -194h-584zM537 651h307l-123 412h-62z" />
<glyph unicode="&#xc1;" horiz-adv-x="1456" d="M14 0v61l453 1434h453l452 -1434v-61h-334l-99 334h-497l-100 -334h-328zM403 1575l82 194h584l-82 -194h-584zM537 651h307l-123 412h-62z" />
<glyph unicode="&#xc2;" horiz-adv-x="1456" d="M14 0v61l453 1434h453l452 -1434v-61h-334l-99 334h-497l-100 -334h-328zM442 1575l144 194h254l143 -194h-541zM537 651h307l-123 412h-62z" />
<glyph unicode="&#xc4;" horiz-adv-x="1411" d="M27 0v61l452 1434h453l452 -1434v-61h-333l-100 334h-497l-100 -334h-327zM424 1575v194h225v-194h-225zM549 651h307l-123 412h-61zM801 1575v194h225v-194h-225z" />
<glyph unicode="&#xc6;" horiz-adv-x="1938" d="M7 0v61l541 1434h1309v-328h-670v-231h557v-320h-557v-288h680v-328h-1024v328h-358l-116 -328h-362zM597 645h246v522h-61z" />
<glyph unicode="&#xc7;" horiz-adv-x="1305" d="M68 756q0 178 10 265.5t34 140t83 124.5q22 28 66 72q47 47 80 69q69 48 137.5 66t191.5 18q118 0 186 -15.5t141 -68.5q42 -29 90 -77q17 -17 62 -67q76 -86 95.5 -148.5t19.5 -184.5h-350q0 49 -6.5 72t-32.5 53q-22 26 -41 45q-11 11 -28 23q-49 37 -136 37 q-84 0 -131 -35q-18 -13 -31 -26q-24 -24 -38 -43q-29 -40 -39 -100t-10 -220q0 -174 8.5 -232t40.5 -100q15 -21 36 -42q6 -6 31 -26q55 -41 133 -41q77 0 129 40q25 20 32 27q17 17 37 41q30 33 38 58.5t8 77.5h350q0 -129 -15.5 -184t-84.5 -135q-30 -36 -73 -79 q-32 -32 -72 -65q-81 -68 -155 -90t-194 -22q-134 0 -203.5 21t-146.5 81q-34 26 -59 51q-44 44 -86 96q-50 63 -70 111t-28.5 136.5t-8.5 275.5zM400 -274l143 194h254v-194h-397z" />
<glyph unicode="&#xc8;" horiz-adv-x="1228" d="M143 0v1495h1014v-328h-670v-231h557v-320h-557v-288h680v-328h-1024zM295 1769h584l82 -194h-584z" />
<glyph unicode="&#xc9;" horiz-adv-x="1228" d="M143 0v1495h1014v-328h-670v-231h557v-320h-557v-288h680v-328h-1024zM356 1575l82 194h584l-82 -194h-584z" />
<glyph unicode="&#xca;" horiz-adv-x="1228" d="M143 0v1495h1014v-328h-670v-231h557v-320h-557v-288h680v-328h-1024zM395 1575l144 194h254l143 -194h-541z" />
<glyph unicode="&#xcb;" horiz-adv-x="1228" d="M143 0v1495h1014v-328h-670v-231h557v-320h-557v-288h680v-328h-1024zM365 1575v194h225v-194h-225zM741 1575v194h226v-194h-226z" />
<glyph unicode="&#xcc;" horiz-adv-x="634" d="M-15 1821h584l82 -195h-584zM143 0v1495h349v-1495h-349z" />
<glyph unicode="&#xcd;" horiz-adv-x="634" d="M-15 1626l82 195h584l-82 -195h-584zM143 0v1495h349v-1495h-349z" />
<glyph unicode="&#xce;" horiz-adv-x="634" d="M47 1626l143 195h254l144 -195h-541zM143 0v1495h349v-1495h-349z" />
<glyph unicode="&#xcf;" horiz-adv-x="634" d="M16 1626v195h226v-195h-226zM143 0v1495h349v-1495h-349zM393 1626v195h225v-195h-225z" />
<glyph unicode="&#xd2;" horiz-adv-x="1344" d="M68 756q0 178 10 265.5t34 140t83 124.5q22 28 66 72q47 47 80 69q72 49 138.5 66.5t192.5 17.5q127 0 195.5 -17.5t136.5 -66.5q37 -26 80 -69q37 -37 57 -62q64 -78 89 -130t36 -140t11 -270q0 -186 -8.5 -274.5t-28.5 -137.5t-70 -111q-42 -52 -86 -96 q-34 -34 -68 -59q-73 -55 -143 -74.5t-201 -19.5q-135 0 -205.5 21.5t-146.5 80.5q-34 26 -59 51q-44 44 -86 96q-50 63 -70 111t-28.5 136.5t-8.5 275.5zM302 1769h583l82 -194h-583zM421 756q0 -166 8.5 -228t38.5 -102q16 -22 38 -44q12 -12 38 -32q29 -21 56 -28t72 -7 t72 7t57 28q21 15 38 32q23 22 39 45q29 40 37.5 102t8.5 227q0 156 -8.5 215t-37.5 98q-14 19 -39 44q-22 22 -38 33q-30 20 -56.5 27t-72.5 7q-45 0 -71.5 -7t-56.5 -27q-16 -11 -38 -33q-22 -21 -38 -44q-30 -39 -38.5 -98t-8.5 -215z" />
<glyph unicode="&#xd3;" horiz-adv-x="1344" d="M68 756q0 178 10 265.5t34 140t83 124.5q22 28 66 72q47 47 80 69q72 49 138.5 66.5t192.5 17.5q127 0 195.5 -17.5t136.5 -66.5q37 -26 80 -69q37 -37 57 -62q64 -78 89 -130t36 -140t11 -270q0 -186 -8.5 -274.5t-28.5 -137.5t-70 -111q-42 -52 -86 -96 q-34 -34 -68 -59q-73 -55 -143 -74.5t-201 -19.5q-135 0 -205.5 21.5t-146.5 80.5q-34 26 -59 51q-44 44 -86 96q-50 63 -70 111t-28.5 136.5t-8.5 275.5zM363 1575l82 194h584l-82 -194h-584zM421 756q0 -166 8.5 -228t38.5 -102q16 -22 38 -44q12 -12 38 -32 q29 -21 56 -28t72 -7t72 7t57 28q21 15 38 32q23 22 39 45q29 40 37.5 102t8.5 227q0 156 -8.5 215t-37.5 98q-14 19 -39 44q-22 22 -38 33q-30 20 -56.5 27t-72.5 7q-45 0 -71.5 -7t-56.5 -27q-16 -11 -38 -33q-22 -21 -38 -44q-30 -39 -38.5 -98t-8.5 -215z" />
<glyph unicode="&#xd4;" horiz-adv-x="1409" d="M100 756q0 178 10 265.5t34 140t83 124.5q22 28 66 72q47 47 80 69q72 49 139 66.5t193 17.5q127 0 195 -17.5t136 -66.5q37 -26 80 -69q42 -42 58 -62q64 -78 89 -130.5t35.5 -140t10.5 -269.5q0 -186 -8.5 -274.5t-28.5 -137.5t-70 -111q-42 -52 -86 -96 q-36 -36 -67 -59q-73 -55 -143 -74.5t-201 -19.5q-135 0 -206 21.5t-147 80.5q-34 26 -59 51q-44 44 -86 96q-50 63 -70 111t-28.5 136.5t-8.5 275.5zM434 1575l144 194h253l144 -194h-541zM453 756q0 -166 8.5 -228t38.5 -102q16 -22 38 -44q12 -12 38 -32q29 -21 56.5 -28 t72.5 -7q44 0 71 7t57 28q21 15 38 32q22 22 39 45q29 40 37.5 102t8.5 227q0 156 -8.5 215t-37.5 98q-14 19 -39 44q-22 22 -38 33q-30 20 -56.5 27t-71.5 7q-46 0 -72.5 -7t-56.5 -27q-16 -11 -38 -33q-22 -21 -38 -44q-30 -39 -38.5 -98t-8.5 -215z" />
<glyph unicode="&#xd6;" horiz-adv-x="1409" d="M100 756q0 178 10 265.5t34 140t83 124.5q22 28 66 72q47 47 80 69q72 49 139 66.5t193 17.5q127 0 195 -17.5t136 -66.5q37 -26 80 -69q42 -42 58 -62q64 -78 89 -130.5t35.5 -140t10.5 -269.5q0 -186 -8.5 -274.5t-28.5 -137.5t-70 -111q-42 -52 -86 -96 q-36 -36 -67 -59q-73 -55 -143 -74.5t-201 -19.5q-135 0 -206 21.5t-147 80.5q-34 26 -59 51q-44 44 -86 96q-50 63 -70 111t-28.5 136.5t-8.5 275.5zM403 1575v194h226v-194h-226zM453 756q0 -166 8.5 -228t38.5 -102q16 -22 38 -44q12 -12 38 -32q29 -21 56.5 -28t72.5 -7 q44 0 71 7t57 28q21 15 38 32q22 22 39 45q29 40 37.5 102t8.5 227q0 156 -8.5 215t-37.5 98q-14 19 -39 44q-22 22 -38 33q-30 20 -56.5 27t-71.5 7q-46 0 -72.5 -7t-56.5 -27q-16 -11 -38 -33q-22 -21 -38 -44q-30 -39 -38.5 -98t-8.5 -215zM780 1575v194h226v-194h-226z " />
<glyph unicode="&#xd9;" horiz-adv-x="1376" d="M113 516v979h348v-903q0 -76 7.5 -110t35.5 -69q16 -20 26 -30q15 -15 39 -33q30 -21 55 -28t64 -7t64 7t55 28q24 18 39 33q10 10 26 30q28 35 35.5 69t7.5 110v903h349v-979q0 -109 -19 -169t-80 -137q-27 -35 -74 -82q-38 -38 -75 -67q-59 -46 -127.5 -61.5 t-200.5 -15.5t-200 15.5t-128 61.5q-32 24 -75 67q-47 47 -74 82q-60 77 -79 137t-19 169zM317 1769h584l82 -194h-584z" />
<glyph unicode="&#xda;" horiz-adv-x="1376" d="M113 516v979h348v-903q0 -76 7.5 -110t35.5 -69q16 -20 26 -30q15 -15 39 -33q30 -21 55 -28t64 -7t64 7t55 28q24 18 39 33q10 10 26 30q28 35 35.5 69t7.5 110v903h349v-979q0 -109 -19 -169t-80 -137q-27 -35 -74 -82q-38 -38 -75 -67q-59 -46 -127.5 -61.5 t-200.5 -15.5t-200 15.5t-128 61.5q-32 24 -75 67q-47 47 -74 82q-60 77 -79 137t-19 169zM379 1575l82 194h583l-81 -194h-584z" />
<glyph unicode="&#xdb;" horiz-adv-x="1351" d="M100 516v979h349v-903q0 -76 7.5 -110t35.5 -69q16 -20 26 -30q15 -15 39 -33q30 -21 55 -28t64 -7t64 7t55 28q24 18 39 33q10 10 26 30q28 35 35.5 69t7.5 110v903h348v-979q0 -109 -19 -169t-79 -137q-27 -35 -74 -82q-38 -38 -75 -67q-59 -46 -127.5 -61.5 t-200.5 -15.5t-200 15.5t-128 61.5q-32 24 -75 67q-47 47 -74 82q-61 77 -80 137t-19 169zM406 1575l143 194h254l143 -194h-540z" />
<glyph unicode="&#xdc;" horiz-adv-x="1376" d="M113 516v979h348v-903q0 -76 7.5 -110t35.5 -69q16 -20 26 -30q15 -15 39 -33q30 -21 55 -28t64 -7t64 7t55 28q24 18 39 33q10 10 26 30q28 35 35.5 69t7.5 110v903h349v-979q0 -109 -19 -169t-80 -137q-27 -35 -74 -82q-38 -38 -75 -67q-59 -46 -127.5 -61.5 t-200.5 -15.5t-200 15.5t-128 61.5q-32 24 -75 67q-47 47 -74 82q-60 77 -79 137t-19 169zM387 1575v194h225v-194h-225zM764 1575v194h225v-194h-225z" />
<glyph unicode="&#xe0;" horiz-adv-x="1456" d="M14 0v61l453 1434h453l452 -1434v-61h-334l-99 334h-497l-100 -334h-328zM342 1769h584l82 -194h-584zM537 651h307l-123 412h-62z" />
<glyph unicode="&#xe1;" horiz-adv-x="1456" d="M14 0v61l453 1434h453l452 -1434v-61h-334l-99 334h-497l-100 -334h-328zM403 1575l82 194h584l-82 -194h-584zM537 651h307l-123 412h-62z" />
<glyph unicode="&#xe2;" horiz-adv-x="1456" d="M14 0v61l453 1434h453l452 -1434v-61h-334l-99 334h-497l-100 -334h-328zM442 1575l144 194h254l143 -194h-541zM537 651h307l-123 412h-62z" />
<glyph unicode="&#xe4;" horiz-adv-x="1411" d="M27 0v61l452 1434h453l452 -1434v-61h-333l-100 334h-497l-100 -334h-327zM424 1575v194h225v-194h-225zM549 651h307l-123 412h-61zM801 1575v194h225v-194h-225z" />
<glyph unicode="&#xe6;" horiz-adv-x="1938" d="M7 0v61l541 1434h1309v-328h-670v-231h557v-320h-557v-288h680v-328h-1024v328h-358l-116 -328h-362zM597 645h246v522h-61z" />
<glyph unicode="&#xe7;" horiz-adv-x="1305" d="M68 756q0 178 10 265.5t34 140t83 124.5q22 28 66 72q47 47 80 69q69 48 137.5 66t191.5 18q118 0 186 -15.5t141 -68.5q42 -29 90 -77q17 -17 62 -67q76 -86 95.5 -148.5t19.5 -184.5h-350q0 49 -6.5 72t-32.5 53q-22 26 -41 45q-11 11 -28 23q-49 37 -136 37 q-84 0 -131 -35q-18 -13 -31 -26q-24 -24 -38 -43q-29 -40 -39 -100t-10 -220q0 -174 8.5 -232t40.5 -100q15 -21 36 -42q6 -6 31 -26q55 -41 133 -41q77 0 129 40q25 20 32 27q17 17 37 41q30 33 38 58.5t8 77.5h350q0 -129 -15.5 -184t-84.5 -135q-30 -36 -73 -79 q-32 -32 -72 -65q-81 -68 -155 -90t-194 -22q-134 0 -203.5 21t-146.5 81q-34 26 -59 51q-44 44 -86 96q-50 63 -70 111t-28.5 136.5t-8.5 275.5zM400 -274l143 194h254v-194h-397z" />
<glyph unicode="&#xe8;" horiz-adv-x="1228" d="M143 0v1495h1014v-328h-670v-231h557v-320h-557v-288h680v-328h-1024zM295 1769h584l82 -194h-584z" />
<glyph unicode="&#xe9;" horiz-adv-x="1228" d="M143 0v1495h1014v-328h-670v-231h557v-320h-557v-288h680v-328h-1024zM356 1575l82 194h584l-82 -194h-584z" />
<glyph unicode="&#xea;" horiz-adv-x="1228" d="M143 0v1495h1014v-328h-670v-231h557v-320h-557v-288h680v-328h-1024zM395 1575l144 194h254l143 -194h-541z" />
<glyph unicode="&#xeb;" horiz-adv-x="1228" d="M143 0v1495h1014v-328h-670v-231h557v-320h-557v-288h680v-328h-1024zM365 1575v194h225v-194h-225zM741 1575v194h226v-194h-226z" />
<glyph unicode="&#xec;" horiz-adv-x="634" d="M-15 1821h584l82 -195h-584zM143 0v1495h349v-1495h-349z" />
<glyph unicode="&#xed;" horiz-adv-x="634" d="M-15 1626l82 195h584l-82 -195h-584zM143 0v1495h349v-1495h-349z" />
<glyph unicode="&#xee;" horiz-adv-x="634" d="M47 1626l143 195h254l144 -195h-541zM143 0v1495h349v-1495h-349z" />
<glyph unicode="&#xef;" horiz-adv-x="634" d="M16 1626v195h226v-195h-226zM143 0v1495h349v-1495h-349zM393 1626v195h225v-195h-225z" />
<glyph unicode="&#xf2;" horiz-adv-x="1344" d="M68 756q0 178 10 265.5t34 140t83 124.5q22 28 66 72q47 47 80 69q72 49 138.5 66.5t192.5 17.5q127 0 195.5 -17.5t136.5 -66.5q37 -26 80 -69q37 -37 57 -62q64 -78 89 -130t36 -140t11 -270q0 -186 -8.5 -274.5t-28.5 -137.5t-70 -111q-42 -52 -86 -96 q-34 -34 -68 -59q-73 -55 -143 -74.5t-201 -19.5q-135 0 -205.5 21.5t-146.5 80.5q-34 26 -59 51q-44 44 -86 96q-50 63 -70 111t-28.5 136.5t-8.5 275.5zM302 1769h583l82 -194h-583zM421 756q0 -166 8.5 -228t38.5 -102q16 -22 38 -44q12 -12 38 -32q29 -21 56 -28t72 -7 t72 7t57 28q21 15 38 32q23 22 39 45q29 40 37.5 102t8.5 227q0 156 -8.5 215t-37.5 98q-14 19 -39 44q-22 22 -38 33q-30 20 -56.5 27t-72.5 7q-45 0 -71.5 -7t-56.5 -27q-16 -11 -38 -33q-22 -21 -38 -44q-30 -39 -38.5 -98t-8.5 -215z" />
<glyph unicode="&#xf3;" horiz-adv-x="1344" d="M68 756q0 178 10 265.5t34 140t83 124.5q22 28 66 72q47 47 80 69q72 49 138.5 66.5t192.5 17.5q127 0 195.5 -17.5t136.5 -66.5q37 -26 80 -69q37 -37 57 -62q64 -78 89 -130t36 -140t11 -270q0 -186 -8.5 -274.5t-28.5 -137.5t-70 -111q-42 -52 -86 -96 q-34 -34 -68 -59q-73 -55 -143 -74.5t-201 -19.5q-135 0 -205.5 21.5t-146.5 80.5q-34 26 -59 51q-44 44 -86 96q-50 63 -70 111t-28.5 136.5t-8.5 275.5zM363 1575l82 194h584l-82 -194h-584zM421 756q0 -166 8.5 -228t38.5 -102q16 -22 38 -44q12 -12 38 -32 q29 -21 56 -28t72 -7t72 7t57 28q21 15 38 32q23 22 39 45q29 40 37.5 102t8.5 227q0 156 -8.5 215t-37.5 98q-14 19 -39 44q-22 22 -38 33q-30 20 -56.5 27t-72.5 7q-45 0 -71.5 -7t-56.5 -27q-16 -11 -38 -33q-22 -21 -38 -44q-30 -39 -38.5 -98t-8.5 -215z" />
<glyph unicode="&#xf4;" horiz-adv-x="1409" d="M100 756q0 178 10 265.5t34 140t83 124.5q22 28 66 72q47 47 80 69q72 49 139 66.5t193 17.5q127 0 195 -17.5t136 -66.5q37 -26 80 -69q42 -42 58 -62q64 -78 89 -130.5t35.5 -140t10.5 -269.5q0 -186 -8.5 -274.5t-28.5 -137.5t-70 -111q-42 -52 -86 -96 q-36 -36 -67 -59q-73 -55 -143 -74.5t-201 -19.5q-135 0 -206 21.5t-147 80.5q-34 26 -59 51q-44 44 -86 96q-50 63 -70 111t-28.5 136.5t-8.5 275.5zM434 1575l144 194h253l144 -194h-541zM453 756q0 -166 8.5 -228t38.5 -102q16 -22 38 -44q12 -12 38 -32q29 -21 56.5 -28 t72.5 -7q44 0 71 7t57 28q21 15 38 32q22 22 39 45q29 40 37.5 102t8.5 227q0 156 -8.5 215t-37.5 98q-14 19 -39 44q-22 22 -38 33q-30 20 -56.5 27t-71.5 7q-46 0 -72.5 -7t-56.5 -27q-16 -11 -38 -33q-22 -21 -38 -44q-30 -39 -38.5 -98t-8.5 -215z" />
<glyph unicode="&#xf6;" horiz-adv-x="1409" d="M100 756q0 178 10 265.5t34 140t83 124.5q22 28 66 72q47 47 80 69q72 49 139 66.5t193 17.5q127 0 195 -17.5t136 -66.5q37 -26 80 -69q42 -42 58 -62q64 -78 89 -130.5t35.5 -140t10.5 -269.5q0 -186 -8.5 -274.5t-28.5 -137.5t-70 -111q-42 -52 -86 -96 q-36 -36 -67 -59q-73 -55 -143 -74.5t-201 -19.5q-135 0 -206 21.5t-147 80.5q-34 26 -59 51q-44 44 -86 96q-50 63 -70 111t-28.5 136.5t-8.5 275.5zM403 1575v194h226v-194h-226zM453 756q0 -166 8.5 -228t38.5 -102q16 -22 38 -44q12 -12 38 -32q29 -21 56.5 -28t72.5 -7 q44 0 71 7t57 28q21 15 38 32q22 22 39 45q29 40 37.5 102t8.5 227q0 156 -8.5 215t-37.5 98q-14 19 -39 44q-22 22 -38 33q-30 20 -56.5 27t-71.5 7q-46 0 -72.5 -7t-56.5 -27q-16 -11 -38 -33q-22 -21 -38 -44q-30 -39 -38.5 -98t-8.5 -215zM780 1575v194h226v-194h-226z " />
<glyph unicode="&#xf9;" horiz-adv-x="1376" d="M113 516v979h348v-903q0 -76 7.5 -110t35.5 -69q16 -20 26 -30q15 -15 39 -33q30 -21 55 -28t64 -7t64 7t55 28q24 18 39 33q10 10 26 30q28 35 35.5 69t7.5 110v903h349v-979q0 -109 -19 -169t-80 -137q-27 -35 -74 -82q-38 -38 -75 -67q-59 -46 -127.5 -61.5 t-200.5 -15.5t-200 15.5t-128 61.5q-32 24 -75 67q-47 47 -74 82q-60 77 -79 137t-19 169zM317 1769h584l82 -194h-584z" />
<glyph unicode="&#xfa;" horiz-adv-x="1376" d="M113 516v979h348v-903q0 -76 7.5 -110t35.5 -69q16 -20 26 -30q15 -15 39 -33q30 -21 55 -28t64 -7t64 7t55 28q24 18 39 33q10 10 26 30q28 35 35.5 69t7.5 110v903h349v-979q0 -109 -19 -169t-80 -137q-27 -35 -74 -82q-38 -38 -75 -67q-59 -46 -127.5 -61.5 t-200.5 -15.5t-200 15.5t-128 61.5q-32 24 -75 67q-47 47 -74 82q-60 77 -79 137t-19 169zM379 1575l82 194h583l-81 -194h-584z" />
<glyph unicode="&#xfb;" horiz-adv-x="1351" d="M100 516v979h349v-903q0 -76 7.5 -110t35.5 -69q16 -20 26 -30q15 -15 39 -33q30 -21 55 -28t64 -7t64 7t55 28q24 18 39 33q10 10 26 30q28 35 35.5 69t7.5 110v903h348v-979q0 -109 -19 -169t-79 -137q-27 -35 -74 -82q-38 -38 -75 -67q-59 -46 -127.5 -61.5 t-200.5 -15.5t-200 15.5t-128 61.5q-32 24 -75 67q-47 47 -74 82q-61 77 -80 137t-19 169zM406 1575l143 194h254l143 -194h-540z" />
<glyph unicode="&#xfc;" horiz-adv-x="1376" d="M113 516v979h348v-903q0 -76 7.5 -110t35.5 -69q16 -20 26 -30q15 -15 39 -33q30 -21 55 -28t64 -7t64 7t55 28q24 18 39 33q10 10 26 30q28 35 35.5 69t7.5 110v903h349v-979q0 -109 -19 -169t-80 -137q-27 -35 -74 -82q-38 -38 -75 -67q-59 -46 -127.5 -61.5 t-200.5 -15.5t-200 15.5t-128 61.5q-32 24 -75 67q-47 47 -74 82q-60 77 -79 137t-19 169zM387 1575v194h225v-194h-225zM764 1575v194h225v-194h-225z" />
<glyph unicode="&#x152;" horiz-adv-x="1986" d="M68 756q0 135 3.5 206.5t20 129.5t37 89.5t66.5 88.5q18 23 66 71q50 50 80 70q72 49 138.5 66.5t192.5 17.5h1233v-328h-670v-231h557v-320h-557v-288h680v-328h-1243q-135 0 -205.5 21.5t-146.5 80.5q-29 22 -59 52q-44 44 -86 96q-52 64 -70.5 106.5t-27.5 128 t-9 271.5zM421 756q0 -163 8 -218.5t39 -95.5q14 -19 38 -43q16 -16 38 -33q29 -21 56 -27.5t72 -6.5h219v831h-219q-45 0 -71.5 -7t-56.5 -27q-16 -11 -38 -33q-24 -24 -38 -43q-30 -40 -38.5 -92t-8.5 -205z" />
<glyph unicode="&#x153;" horiz-adv-x="1986" d="M68 756q0 135 3.5 206.5t20 129.5t37 89.5t66.5 88.5q18 23 66 71q50 50 80 70q72 49 138.5 66.5t192.5 17.5h1233v-328h-670v-231h557v-320h-557v-288h680v-328h-1243q-135 0 -205.5 21.5t-146.5 80.5q-29 22 -59 52q-44 44 -86 96q-52 64 -70.5 106.5t-27.5 128 t-9 271.5zM421 756q0 -163 8 -218.5t39 -95.5q14 -19 38 -43q16 -16 38 -33q29 -21 56 -27.5t72 -6.5h219v831h-219q-45 0 -71.5 -7t-56.5 -27q-16 -11 -38 -33q-24 -24 -38 -43q-30 -40 -38.5 -92t-8.5 -205z" />
<glyph unicode="&#x2c6;" horiz-adv-x="745" d="M102 1196l144 195h254l143 -195h-541z" />
<glyph unicode="&#x2000;" horiz-adv-x="910" />
<glyph unicode="&#x2001;" horiz-adv-x="1821" />
<glyph unicode="&#x2002;" horiz-adv-x="910" />
<glyph unicode="&#x2003;" horiz-adv-x="1821" />
<glyph unicode="&#x2004;" horiz-adv-x="607" />
<glyph unicode="&#x2005;" horiz-adv-x="455" />
<glyph unicode="&#x2006;" horiz-adv-x="303" />
<glyph unicode="&#x2007;" horiz-adv-x="303" />
<glyph unicode="&#x2008;" horiz-adv-x="227" />
<glyph unicode="&#x2009;" horiz-adv-x="364" />
<glyph unicode="&#x200a;" horiz-adv-x="101" />
<glyph unicode="&#x2010;" horiz-adv-x="819" d="M82 618v236h655v-236h-655z" />
<glyph unicode="&#x2011;" horiz-adv-x="819" d="M82 618v236h655v-236h-655z" />
<glyph unicode="&#x2012;" horiz-adv-x="819" d="M82 618v236h655v-236h-655z" />
<glyph unicode="&#x2013;" d="M82 618v236h1106v-236h-1106z" />
<glyph unicode="&#x2014;" horiz-adv-x="1863" d="M82 618v236h1700v-236h-1700z" />
<glyph unicode="&#x2018;" horiz-adv-x="552" d="M102 822v352l137 321h177v-61l-81 -198v-62h116v-352h-349z" />
<glyph unicode="&#x2019;" horiz-adv-x="552" d="M102 1143v352h349v-352l-137 -321h-177v61l81 198v62h-116z" />
<glyph unicode="&#x201c;" horiz-adv-x="996" d="M102 822v352l137 321h177v-61l-81 -198v-62h116v-352h-349zM546 822v352l137 321h177v-61l-81 -198v-62h115v-352h-348z" />
<glyph unicode="&#x201d;" horiz-adv-x="996" d="M102 1143v352h349v-352l-137 -321h-177v61l81 198v62h-116zM546 1143v352h348v-352l-136 -321h-178v61l82 198v62h-116z" />
<glyph unicode="&#x202f;" horiz-adv-x="364" />
<glyph unicode="&#x205f;" horiz-adv-x="455" />
<glyph unicode="&#xe000;" horiz-adv-x="1495" d="M0 0v1495h1495v-1495h-1495z" />
</font>
</defs>
</svg>
